# xmcd CD database file
#
# Track frame offsets:
#	150
#	31526
#	65070
#	88356
#	119124
#	148756
#	177218
#	193524
#	217372
#	240182
#	264460
#
# Disc length: 3840 seconds
#
# Revision: 0
# Processed by: cddbd v1.5.1PL0 Copyright (c) Steve Scherf et al.
# Submitted via: CDex 1.51
#
DISCID=a70efe0b
DTITLE=Moriya Junko (守屋純子) - Points Of Departure
DYEAR=2005
DGENRE=Jazz
TTITLE0=Highway
TTITLE1=Departure
TTITLE2=I Love You
TTITLE3=Wind Farm
TTITLE4=25% Solution
TTITLE5=All Blues
TTITLE6=My Funny Valentine
TTITLE7=Mobius
TTITLE8=Fragments
TTITLE9=Heartsong
TTITLE10=Fascinating Rhythm
EXTD=YEAR: 2005
EXTT0=
EXTT1=
EXTT2=
EXTT3=
EXTT4=
EXTT5=
EXTT6=
EXTT7=
EXTT8=
EXTT9=
EXTT10=
PLAYORDER=
